<?xml version="1.0" standalone="no"?>
<!DOCTYPE svg PUBLIC "-//W3C//DTD SVG 20010904//EN"
"http://www.w3.org/TR/2001/REC-SVG-20010904/DTD/svg10.dtd">
<svg version="1.0" xmlns="http://www.w3.org/2000/svg"
width="6250.000000pt" height="6251.000000pt" viewBox="0 0 6250.000000 6251.000000"
preserveAspectRatio="xMidYMid meet">

<g transform="translate(0.000000,6251.000000) scale(0.100000,-0.100000)"
fill="#000000" stroke="none">
<path d="M0 31260 l0 -31250 31250 0 31250 0 0 31250 0 31250 -31250 0 -31250
0 0 -31250z m11085 6820 c813 -67 1476 -255 2010 -571 464 -273 845 -674 1079
-1133 200 -391 315 -855 333 -1343 l6 -173 -1070 0 -1071 0 -7 58 c-23 192
-99 458 -179 624 -253 526 -710 803 -1435 869 -185 16 -555 7 -726 -19 -410
-63 -699 -194 -909 -412 -96 -100 -140 -164 -202 -294 -106 -224 -142 -553
-89 -811 75 -363 333 -563 917 -710 223 -56 482 -99 1101 -180 671 -89 736
-98 927 -131 1266 -221 2094 -633 2547 -1269 274 -384 421 -859 441 -1420 28
-773 -146 -1369 -562 -1925 -139 -186 -412 -442 -641 -602 -558 -388 -1339
-641 -2245 -728 -499 -47 -1223 -41 -1715 16 -489 56 -958 167 -1345 319 -139
54 -405 184 -528 259 -900 542 -1374 1404 -1418 2579 l-7 177 1105 0 1104 0
18 -117 c54 -369 165 -686 318 -911 74 -109 254 -288 359 -355 181 -118 378
-198 619 -251 401 -88 984 -97 1410 -20 737 133 1195 522 1270 1081 18 130 8
364 -19 468 -134 508 -643 770 -1836 945 -115 17 -255 37 -310 45 -55 8 -305
44 -555 80 -642 93 -859 133 -1180 216 -1431 373 -2033 1109 -2049 2504 -4
381 44 708 153 1040 306 928 1048 1584 2151 1900 368 105 807 177 1245 204
184 11 814 6 985 -9z m7225 -2125 l0 -1955 2105 0 2105 0 0 1955 0 1955 1128
0 1127 0 0 -4970 0 -4970 -1127 0 -1128 0 0 2050 0 2050 -2105 0 -2105 0 0
-2050 0 -2050 -1125 0 -1125 0 0 4970 0 4970 1125 0 1125 0 0 -1955z m24910
1832 c19 -3 91 -11 160 -17 277 -25 621 -93 869 -172 1119 -355 1779 -1122
1927 -2239 19 -147 28 -608 13 -744 -32 -312 -94 -565 -196 -804 -218 -512
-612 -905 -1158 -1153 -103 -47 -345 -138 -367 -138 -7 0 -19 -4 -27 -9 -9 -6
13 -14 65 -26 295 -65 631 -222 849 -398 403 -325 637 -798 695 -1408 5 -56
10 -524 11 -1048 1 -520 5 -1000 10 -1066 16 -228 56 -464 105 -628 13 -44 24
-82 24 -84 0 -2 -488 -3 -1083 -3 l-1084 0 -18 43 c-68 164 -101 259 -130 372
-68 265 -67 247 -75 1345 -5 547 -11 1011 -15 1030 -39 204 -51 256 -77 330
-61 173 -137 297 -249 407 -226 222 -514 322 -1019 353 -179 11 -2050 14
-2102 3 l-28 -5 0 -1939 0 -1939 -1122 2 -1123 3 -3 4973 -2 4973 2557 -4
c1407 -2 2574 -6 2593 -10z m6365 -17 c7 0 9 -740 8 -2206 -2 -1321 1 -2204 6
-2202 5 2 213 237 462 523 249 286 707 813 1018 1170 312 358 794 911 1072
1230 1434 1648 1288 1485 1328 1485 20 0 606 1 1304 2 697 2 1267 -1 1267 -5
0 -7 -330 -370 -1586 -1747 -1677 -1838 -2143 -2353 -2139 -2360 3 -4 262
-394 576 -866 315 -473 721 -1084 904 -1359 183 -275 793 -1193 1356 -2040
564 -847 1028 -1546 1033 -1552 6 -10 -257 -13 -1301 -13 l-1308 0 -160 245
c-88 135 -245 376 -350 535 -104 159 -269 410 -365 557 -186 284 -333 508
-503 768 -58 88 -275 419 -482 735 -208 316 -396 604 -420 640 -145 221 -358
546 -400 612 -28 43 -53 77 -56 75 -3 -1 -187 -200 -409 -442 -222 -242 -504
-549 -627 -682 l-223 -242 3 -1401 2 -1400 -1125 0 -1125 0 2 4972 c2 2735 3
4973 3 4973 19 0 2228 -5 2235 -5z m-22813 -12987 c2 -1215 2 -2211 0 -2215
-2 -5 -4609 -8 -10238 -8 l-10234 0 0 2215 0 2215 10235 0 10235 0 2 -2207z
m7433 1058 c390 -83 609 -322 627 -681 l3 -65 -217 -3 -218 -2 -5 27 c-20 93
-29 123 -50 170 -69 152 -225 233 -449 233 -291 -1 -450 -115 -464 -335 -6
-95 10 -154 55 -200 68 -70 158 -98 453 -140 438 -62 586 -105 734 -214 151
-112 220 -264 219 -486 -1 -223 -52 -356 -192 -495 -127 -126 -269 -193 -502
-236 -131 -25 -465 -25 -599 0 -121 22 -257 67 -338 113 -77 43 -193 150 -238
219 -66 103 -109 246 -117 392 l-3 62 228 0 228 0 0 -27 c0 -59 43 -186 84
-246 94 -140 251 -196 516 -184 179 8 281 41 367 120 80 74 118 185 102 300
-22 167 -151 236 -540 292 -384 54 -502 82 -639 148 -82 40 -187 142 -223 217
-56 115 -75 326 -43 481 40 192 173 360 356 452 103 51 239 91 365 106 122 15
393 5 500 -18z m3694 4 c461 -90 759 -371 796 -753 l7 -67 -208 2 -208 2 -21
59 c-77 214 -256 352 -508 392 -96 16 -289 8 -372 -15 -219 -59 -373 -210
-450 -437 -35 -106 -55 -249 -55 -395 0 -308 71 -524 220 -673 138 -139 310
-197 550 -187 140 6 215 23 310 69 79 38 196 150 232 223 45 90 88 249 88 327
l0 28 -300 0 -300 0 -1 125 c0 69 -1 140 -2 158 l-1 32 522 3 522 2 0 -655 0
-655 -160 0 c-88 0 -163 0 -167 0 -5 0 -16 75 -25 167 -9 93 -18 179 -20 193
-2 21 -10 12 -43 -50 -59 -111 -149 -197 -266 -254 -52 -24 -122 -52 -156 -61
-155 -39 -405 -43 -583 -9 -560 106 -880 548 -880 1217 0 388 111 695 332 915
169 170 401 278 670 312 105 13 377 4 477 -15z m6336 -10 c130 -38 199 -78
285 -165 85 -85 128 -162 154 -277 50 -221 -17 -411 -191 -542 -75 -56 -218
-133 -330 -176 l-72 -28 251 -259 c139 -142 256 -257 262 -255 30 10 129 257
157 395 7 34 15 62 19 62 151 3 382 1 386 -2 9 -9 -64 -272 -100 -360 -49
-121 -75 -171 -147 -277 l-62 -93 212 -212 c116 -116 211 -213 211 -216 0 -3
-114 -4 -252 -2 l-253 3 -91 90 -91 91 -39 -27 c-318 -218 -836 -256 -1184
-88 -127 61 -241 172 -295 286 -53 109 -71 223 -56 353 27 253 143 405 411
539 41 20 76 39 78 40 2 2 -22 36 -53 77 -114 148 -164 290 -165 460 0 109 13
174 55 263 82 179 247 297 479 341 112 21 309 12 421 -21z m8465 20 c518 -70
870 -391 906 -825 l6 -75 -218 0 -219 0 -17 70 c-56 224 -209 379 -433 440
-95 25 -292 31 -400 11 -358 -68 -545 -335 -560 -801 -12 -410 116 -699 365
-825 121 -61 190 -75 365 -75 180 1 242 13 360 71 87 42 161 106 211 181 42
64 87 181 98 256 l7 47 221 0 221 0 -7 -84 c-40 -487 -446 -821 -1036 -852
-578 -30 -1027 247 -1190 735 -136 405 -95 895 102 1225 171 287 477 468 858
509 86 9 264 5 360 -8z m-23885 -28 c424 -3 431 -4 538 -30 335 -82 560 -252
695 -528 164 -336 174 -868 22 -1232 -99 -237 -300 -430 -548 -523 -191 -71
-239 -77 -712 -81 -234 -2 -507 -4 -608 -6 l-182 -2 0 1205 0 1205 182 -2
c101 -2 377 -4 613 -6z m3648 -182 l2 -185 -647 0 -648 0 0 -315 0 -315 595 0
595 0 0 -175 0 -175 -595 0 -595 0 0 -340 0 -340 648 0 647 0 -2 -185 -1 -185
-876 -3 -876 -2 0 1205 0 1205 876 -2 876 -3 1 -185z m3422 -1015 l0 -1202
-228 1 -227 1 0 1200 c0 660 0 1201 0 1203 0 1 102 1 228 0 l227 -1 0 -1202z
m4137 873 c116 -180 234 -364 262 -408 29 -44 184 -287 346 -539 l295 -459 3
867 c1 565 6 866 12 866 6 0 105 1 220 1 l210 0 0 -1201 0 -1201 -247 0 c-211
1 -250 3 -258 16 -5 9 -147 228 -314 488 -167 260 -329 511 -360 559 -31 48
-101 157 -156 243 -55 85 -142 219 -192 298 l-93 142 0 -872 c0 -824 -1 -873
-17 -874 -10 0 -108 0 -218 0 l-200 0 -3 1193 c-1 656 0 1198 2 1203 2 6 93 9
250 8 l247 -1 211 -329z m8588 145 l0 -188 -365 0 -365 0 0 -1017 0 -1018
-230 3 -230 3 0 1014 0 1015 -365 0 -365 0 0 188 0 187 960 0 960 0 0 -187z
m2250 0 l0 -188 -647 -2 -648 -3 -3 -312 -3 -313 596 0 595 0 0 -175 0 -175
-589 0 -590 0 -6 -42 c-3 -24 -5 -176 -3 -338 l3 -295 648 -3 647 -2 0 -188 0
-187 -877 2 -878 3 -3 1192 c-1 656 0 1198 2 1203 2 7 305 10 880 10 l876 0 0
-187z m4310 -798 l570 0 0 490 0 489 230 3 230 3 0 -1205 0 -1205 -230 3 -230
3 0 514 0 515 -570 0 -570 0 0 -517 0 -518 -230 3 -230 3 0 1199 0 1200 228 2
227 3 3 -492 2 -493 570 0z"/>
<path d="M40320 34765 l0 -1355 1138 0 c677 0 1185 4 1257 10 616 52 1000 323
1159 820 57 177 71 284 71 535 -1 237 -11 320 -60 490 -144 499 -511 778
-1110 845 -55 6 -547 10 -1272 10 l-1183 0 0 -1355z"/>
<path d="M8565 25859 c-547 -75 -896 -424 -980 -979 -19 -122 -19 -378 0 -500
40 -266 140 -482 303 -651 225 -236 516 -343 912 -335 337 7 600 104 803 296
161 151 259 359 269 570 l3 65 -217 3 -218 2 -5 -27 c-34 -166 -80 -264 -162
-347 -134 -135 -315 -195 -557 -183 -213 11 -343 62 -466 186 -148 149 -219
363 -220 666 0 207 32 370 101 513 32 65 58 102 117 161 126 126 254 178 464
188 293 14 510 -79 633 -271 31 -50 74 -162 90 -239 l6 -28 209 3 c114 2 212
7 216 11 13 13 5 121 -15 200 -89 346 -373 589 -793 678 -109 23 -383 33 -493
18z"/>
<path d="M11392 25859 c-473 -64 -810 -346 -937 -784 -43 -149 -58 -265 -58
-445 0 -344 87 -624 262 -840 200 -248 488 -379 871 -397 371 -17 699 96 920
317 251 250 372 647 331 1080 -56 568 -370 940 -888 1050 -115 24 -385 35
-501 19z m443 -399 c244 -77 382 -231 457 -510 30 -111 37 -432 13 -568 -76
-422 -337 -630 -765 -609 -208 10 -336 62 -460 187 -82 81 -131 164 -168 280
-41 128 -47 180 -47 390 0 210 6 262 47 390 36 115 87 199 168 281 96 97 182
143 330 174 100 22 335 13 425 -15z"/>
<path d="M16310 25855 c-517 -72 -860 -414 -956 -950 -24 -137 -24 -412 0
-550 77 -440 325 -753 704 -889 246 -88 594 -98 859 -25 427 118 704 439 789
914 24 138 24 412 0 550 -98 550 -449 888 -991 954 -117 14 -285 12 -405 -4z
m445 -389 c241 -65 399 -233 472 -502 26 -94 27 -110 27 -334 0 -221 -2 -241
-26 -331 -41 -151 -90 -240 -183 -335 -89 -91 -155 -130 -282 -166 -103 -30
-351 -33 -453 -5 -121 32 -207 82 -295 171 -93 95 -142 183 -183 335 -25 91
-26 109 -26 331 0 223 1 240 27 333 79 292 243 454 517 512 86 19 322 13 405
-9z"/>
<path d="M24290 25856 c-365 -57 -586 -218 -680 -496 -31 -90 -39 -314 -16
-413 33 -142 103 -242 219 -315 131 -82 249 -114 617 -167 407 -59 530 -107
590 -230 26 -54 29 -160 6 -239 -32 -108 -147 -200 -296 -237 -74 -19 -346
-19 -420 0 -183 46 -284 151 -326 343 -9 40 -18 79 -20 86 -3 10 -53 12 -226
10 l-222 -3 3 -60 c14 -319 186 -558 480 -665 152 -56 282 -75 511 -74 228 0
325 13 482 64 260 84 437 261 494 495 24 96 24 288 0 374 -37 135 -109 238
-218 313 -155 105 -306 147 -743 208 -301 41 -403 80 -456 173 -21 36 -24 55
-24 137 0 82 4 103 26 151 66 141 206 209 429 209 170 0 284 -36 369 -115 61
-57 104 -139 126 -240 l17 -75 220 0 220 0 -7 78 c-34 369 -251 597 -645 677
-104 22 -401 28 -510 11z"/>
<path d="M13405 25828 c-3 -7 -4 -551 -3 -1208 l3 -1195 805 0 805 0 3 187 2
188 -575 2 -576 3 1 1004 c0 737 -3 1007 -11 1017 -16 19 -447 21 -454 2z"/>
<path d="M18317 25834 c-4 -4 -7 -375 -7 -824 0 -905 1 -922 64 -1092 42 -112
86 -184 160 -259 183 -189 488 -282 870 -266 229 10 390 45 533 117 245 123
384 339 423 660 6 51 10 394 10 877 l0 792 -225 1 c-175 0 -226 -2 -230 -12
-2 -7 -6 -373 -8 -813 -4 -705 -6 -808 -21 -870 -47 -199 -143 -301 -329 -353
-90 -25 -368 -24 -452 2 -132 40 -213 104 -266 208 -64 127 -63 101 -66 1010
l-4 827 -222 1 c-123 0 -226 -3 -230 -6z"/>
<path d="M21045 25828 c-3 -7 -4 -551 -3 -1208 l3 -1195 219 -3 c156 -2 223 1
233 9 11 10 13 89 11 491 l-3 478 305 0 c415 0 487 -14 575 -112 72 -80 77
-107 85 -453 5 -245 10 -308 23 -344 28 -74 16 -70 253 -70 233 0 223 -3 203
59 -7 21 -14 169 -19 370 -7 354 -10 374 -64 477 -45 88 -165 182 -274 214
l-43 12 88 43 c149 72 233 164 288 314 36 97 46 292 21 408 -46 216 -200 385
-423 463 -145 51 -157 52 -836 56 -520 4 -638 2 -642 -9z m1189 -353 c118 -25
184 -76 233 -180 26 -55 28 -69 28 -175 -1 -94 -5 -125 -23 -170 -37 -93 -113
-158 -217 -185 -48 -12 -125 -15 -402 -15 l-343 0 -2 366 c-2 201 -1 368 1
370 2 2 151 4 330 4 247 0 343 -4 395 -15z"/>
<path d="M43913 25550 c-121 -25 -194 -105 -211 -229 -19 -134 22 -264 124
-398 63 -82 53 -81 174 -17 127 66 222 166 255 265 37 111 -1 264 -80 325 -62
47 -179 71 -262 54z"/>
<path d="M43645 24472 c-109 -70 -173 -163 -196 -288 -48 -258 143 -455 444
-456 102 0 187 13 272 42 69 24 177 80 173 91 -4 9 -621 647 -628 648 -3 0
-32 -16 -65 -37z"/>
<path d="M28480 24629 l0 -840 343 3 c382 5 398 7 543 78 153 74 263 226 313
430 48 191 48 463 1 659 -65 270 -233 440 -483 492 -79 16 -137 19 -404 19
l-313 0 0 -841z"/>
</g>
</svg>
